<?xml version="1.0" encoding="UTF-8" standalone="no"?>
<!-- Created with Inkscape (http://www.inkscape.org/) -->

<svg
   xmlns:dc="http://purl.org/dc/elements/1.1/"
   xmlns:cc="http://creativecommons.org/ns#"
   xmlns:rdf="http://www.w3.org/1999/02/22-rdf-syntax-ns#"
   xmlns:svg="http://www.w3.org/2000/svg"
   xmlns="http://www.w3.org/2000/svg"
   xmlns:sodipodi="http://sodipodi.sourceforge.net/DTD/sodipodi-0.dtd"
   xmlns:inkscape="http://www.inkscape.org/namespaces/inkscape"
   width="744.09448819"
   height="1052.3622047"
   id="svg3001"
   version="1.1"
   inkscape:version="0.48.4 r9939"
   sodipodi:docname="New document 2">
  <defs
     id="defs3003" />
  <sodipodi:namedview
     id="base"
     pagecolor="#ffffff"
     bordercolor="#666666"
     borderopacity="1.0"
     inkscape:pageopacity="0.0"
     inkscape:pageshadow="2"
     inkscape:zoom="0.98994949"
     inkscape:cx="367.78692"
     inkscape:cy="496.49114"
     inkscape:document-units="px"
     inkscape:current-layer="layer1"
     showgrid="false"
     inkscape:window-width="1215"
     inkscape:window-height="1000"
     inkscape:window-x="65"
     inkscape:window-y="24"
     inkscape:window-maximized="1" />
  <metadata
     id="metadata3006">
    <rdf:RDF>
      <cc:Work
         rdf:about="">
        <dc:format>image/svg+xml</dc:format>
        <dc:type
           rdf:resource="http://purl.org/dc/dcmitype/StillImage" />
        <dc:title></dc:title>
      </cc:Work>
    </rdf:RDF>
  </metadata>
  <g
     inkscape:label="Layer 1"
     inkscape:groupmode="layer"
     id="layer1">
    <path
       sodipodi:type="arc"
       style="fill:#ff0000"
       id="path3013"
       sodipodi:cx="413.65747"
       sodipodi:cy="501.32397"
       sodipodi:rx="214.65741"
       sodipodi:ry="223.74879"
       d="m 628.31488,501.32397 a 214.65741,223.74879 0 1 1 -429.31482,0 214.65741,223.74879 0 1 1 429.31482,0 z" />
    <path
       style="fill:#ffffff;stroke:#000000;stroke-width:1px;stroke-linecap:butt;stroke-linejoin:miter;stroke-opacity:1"
       d="m 197.9899,508.90011 c 435.37575,-3.03045 435.37575,-3.03045 435.37575,-3.03045"
       id="path3015"
       inkscape:connector-curvature="0" />
    <path
       style="fill:#ffffff"
       d="m 385.86865,722.60737 c -42.96554,-6.32341 -79.09798,-23.24581 -111.47724,-52.20964 -33.31692,-29.80258 -57.54361,-70.31162 -68.17947,-114.00176 -2.60723,-10.70999 -5.00572,-25.85852 -6.18479,-39.06225 -0.63961,-7.16268 -0.60269,-7.3241 1.68003,-7.34633 30.44146,-0.29645 396.44046,-2.969 408.78735,-2.985 l 17.5446,-0.0227 -0.69038,8.83884 c -1.70765,21.86281 -5.84591,42.43337 -12.32906,61.28559 -3.74748,10.89726 -14.60621,34.20904 -19.80021,42.50758 -36.99758,59.1117 -91.16816,94.67544 -157.65361,103.50179 -10.73732,1.42543 -40.55658,1.13352 -51.69722,-0.50609 l 0,0 z"
       id="path3017"
       inkscape:connector-curvature="0" />
    <path
       sodipodi:type="arc"
       style="fill:#ffffff"
       id="path3023"
       sodipodi:cx="301.02545"
       sodipodi:cy="416.47116"
       sodipodi:rx="47.477169"
       sodipodi:ry="45.961941"
       d="m 348.50262,416.47116 a 47.477169,45.961941 0 1 1 -94.95434,0 l 47.47717,0 z"
       sodipodi:start="0"
       sodipodi:end="3.1415927"
       transform="matrix(0.82973761,0.55815365,-0.55815365,0.82973761,302.59604,-90.165827)" />
    <path
       sodipodi:type="arc"
       style="fill:#ffffff"
       id="path3023-1"
       sodipodi:cx="301.02545"
       sodipodi:cy="416.47116"
       sodipodi:rx="47.477169"
       sodipodi:ry="45.961941"
       d="m 348.50262,416.47116 a 47.477169,45.961941 0 1 1 -94.95434,0 l 47.47717,0 z"
       sodipodi:start="0"
       sodipodi:end="3.1415927"
       transform="matrix(0.87523513,-0.48369769,0.48369769,0.87523513,41.108477,206.29287)" />
    <path
       sodipodi:type="arc"
       style="fill:#000000"
       id="path3043"
       sodipodi:cx="316.68283"
       sodipodi:cy="458.89755"
       sodipodi:rx="8.586297"
       sodipodi:ry="11.616755"
       d="m 325.26913,458.89755 a 8.586297,11.616755 0 1 1 -17.1726,0 8.586297,11.616755 0 1 1 17.1726,0 z" />
    <path
       sodipodi:type="arc"
       style="fill:#000000"
       id="path3045"
       sodipodi:cx="499.52045"
       sodipodi:cy="461.42294"
       sodipodi:rx="6.5659914"
       sodipodi:ry="11.111678"
       d="m 506.08644,461.42294 a 6.5659914,11.111678 0 1 1 -13.13198,0 6.5659914,11.111678 0 1 1 13.13198,0 z" />
  </g>
</svg>
